<?xml version="1.0" encoding="iso-8859-1"?>
<!-- Generator: Adobe Illustrator 19.0.0, SVG Export Plug-In . SVG Version: 6.00 Build 0)  -->
<svg version="1.1" id="Capa_1" xmlns="http://www.w3.org/2000/svg" xmlns:xlink="http://www.w3.org/1999/xlink" x="0px" y="0px"
	 viewBox="0 0 480.073 480.073" style="enable-background:new 0 0 480.073 480.073;" xml:space="preserve">
<linearGradient id="SVGID_1_" gradientUnits="userSpaceOnUse" x1="-26.8067" y1="620.4242" x2="-26.8067" y2="567.3742" gradientTransform="matrix(8 0 0 -8 454.49 5011.1929)">
	<stop  offset="0" style="stop-color:#00E7F0"/>
	<stop  offset="1" style="stop-color:#006DF0"/>
</linearGradient>
<path style="fill:url(#SVGID_1_);" d="M430.105,239.799l-30.344-106.2c-1.222-4.246-5.654-6.697-9.9-5.476
	c-2.646,0.761-4.714,2.83-5.476,5.476l-30.344,106.2h-33.968c-3.047-0.017-5.838,1.699-7.2,4.424
	c-29.84,59.68-51.44,103.947-64.8,132.8V63.799c0.005-4.418-3.573-8.004-7.991-8.009c-3.188-0.004-6.073,1.886-7.345,4.809
	l-77.912,179.2h-43.392c-4.418-30.611-32.815-51.844-63.426-47.426s-51.844,32.815-47.426,63.426s32.815,51.844,63.426,47.426
	c24.574-3.547,43.879-22.852,47.426-47.426h48.64c3.182,0.002,6.063-1.883,7.336-4.8l64.664-148.736v313.672
	c-0.188,4.418,3.242,8.152,7.66,8.34s8.152-3.242,8.34-7.66c2.96-10.816,47.688-102.168,76.968-160.8h35.032
	c3.57-0.002,6.706-2.368,7.688-5.8l24.312-85.096l24.312,85.08c0.982,3.432,4.118,5.798,7.688,5.8h56v-16H430.105z M56.073,287.799
	c-22.091,0-40-17.909-40-40c0-22.091,17.909-40,40-40s40,17.909,40,40C96.046,269.88,78.153,287.773,56.073,287.799z"/>
<g>
</g>
<g>
</g>
<g>
</g>
<g>
</g>
<g>
</g>
<g>
</g>
<g>
</g>
<g>
</g>
<g>
</g>
<g>
</g>
<g>
</g>
<g>
</g>
<g>
</g>
<g>
</g>
<g>
</g>
</svg>
